<?xml version="1.0" encoding="UTF-8" standalone="no"?>
<!-- Generator: Adobe Illustrator 16.0.0, SVG Export Plug-In . SVG Version: 6.00 Build 0)  -->

<svg
   xmlns:dc="http://purl.org/dc/elements/1.1/"
   xmlns:cc="http://creativecommons.org/ns#"
   xmlns:rdf="http://www.w3.org/1999/02/22-rdf-syntax-ns#"
   xmlns:svg="http://www.w3.org/2000/svg"
   xmlns="http://www.w3.org/2000/svg"
   xmlns:sodipodi="http://sodipodi.sourceforge.net/DTD/sodipodi-0.dtd"
   xmlns:inkscape="http://www.inkscape.org/namespaces/inkscape"
   version="1.1"
   x="0px"
   y="0px"
   width="240px"
   height="232px"
   viewBox="0 0 240 232"
   style="enable-background:new 0 0 240 232;"
   xml:space="preserve"
   id="svg2"
   inkscape:version="0.91 r13725"
   sodipodi:docname="Top Tier.svg"><metadata
     id="metadata34"><rdf:RDF><cc:Work
         rdf:about=""><dc:format>image/svg+xml</dc:format><dc:type
           rdf:resource="http://purl.org/dc/dcmitype/StillImage" /><dc:title></dc:title></cc:Work></rdf:RDF></metadata><defs
     id="defs32" /><sodipodi:namedview
     pagecolor="#ffffff"
     bordercolor="#666666"
     borderopacity="1"
     objecttolerance="10"
     gridtolerance="10"
     guidetolerance="10"
     inkscape:pageopacity="0"
     inkscape:pageshadow="2"
     inkscape:window-width="1148"
     inkscape:window-height="693"
     id="namedview30"
     showgrid="false"
     inkscape:zoom="1.0172414"
     inkscape:cx="120"
     inkscape:cy="116"
     inkscape:window-x="2466"
     inkscape:window-y="215"
     inkscape:window-maximized="0"
     inkscape:current-layer="svg2" /><polygon
     id="polygon13"
     points="44,232 72,144 0,88 92,88 120,0 148,88 240,88 168,144 196,232 120,176 "
     style="fill:#f24f4a;fill-opacity:1" /><polygon
     id="polygon15"
     points="76,184 88,136 48,104 100,104 120,52 140,104 192,104 152,136 164,184 120,156 "
     style="fill:#e0eeef;fill-opacity:1" /><polygon
     id="polygon17"
     points="104,148 108,128 92,116 112,116 120,94.414 128,116 148,116 132,128 136,148 120,136 "
     style="fill:#4d5152;fill-opacity:1" /><g
     id="Layer_1" /></svg>